# xmcd
#
# Track frame offsets:
#	150
#	13010
#	23791
#	39692
#	52113
#	67768
#	89323
#	103478
#	119217
#	133683
#	149086
#	163923
#
# Disc length: 2380 seconds
#
# Revision: 0
# Processed by: cddbd v1.5.2PL0 Copyright (c) Steve Scherf et al.
# Submitted via: EasyCDDAExtractor 16.0.8.2
#
DISCID=b8094a0c
DTITLE=Ξυλούρης Νίκος - Αφιέρωμα στην Κρήτη-LP1987, Ν. Ξυλούρης
DYEAR=2007
DGENRE=Κρητική
TTITLE0=Την μάννα μου την αγαπώ [1978, Ν. Ξυλούρης]
TTITLE1=Ανωγειανές κοντυλιές [1975, Ν. Ξυλούρης]
TTITLE2=Ένας ψαράς [1973, Ν. Ξυλούρης]
TTITLE3=Μιά χωριανή μου πέρδικα [1975,Ν.Ξυλούρης-Ερ.Θαλασσινός]
TTITLE4=Είναι γυναίκα που βαστά [1973, Ν. Ξυλούρης]
TTITLE5=Ερωτόκριτος [1970, Ν. Ξυλούρης, στ. ιδίου]
TTITLE6=Δακρύζω με παράπονο [1975, Ν. Ξυλούρης]
TTITLE7=Αρισμαροβιτσόβεργα [1978, Ν. Ξυλούρης]
TTITLE8=Πάλι καυγά εβάλανε [1969, Ν. Ξυλούρης-Ουρ. Μελαμπιανάκη]
TTITLE9=Ανυφαντού [1969, Ν. Ξυλούρης]
TTITLE10=Σε ψηλό βουνό [1971, Ν. Ξυλούρης]
TTITLE11=Αποχαιρετισμός [1977, Κώστας Μουντάκης]
EXTD=
EXTT0=
EXTT1=
EXTT2=
EXTT3=
EXTT4=
EXTT5=
EXTT6=
EXTT7=
EXTT8=
EXTT9=
EXTT10=
EXTT11=
PLAYORDER=
